<svg width="65" height="72" viewBox="0 0 65 72" fill="none" xmlns="http://www.w3.org/2000/svg">
<mask id="path-1-outside-1_67_3" maskUnits="userSpaceOnUse" x="-0.499866" y="-1.03241" width="65" height="74" fill="black">
<rect fill="white" x="-0.499866" y="-1.03241" width="65" height="74"/>
<path d="M31.8796 -0.0324097C32.5409 0.236728 33.148 0.580516 33.7638 0.94043C33.9769 1.06296 33.9769 1.06296 34.1943 1.18797C34.6434 1.44679 35.0914 1.70754 35.5392 1.96875C35.8173 2.13043 36.0954 2.29212 36.3736 2.4538C36.9321 2.77899 37.4901 3.10507 38.0479 3.43158C39.3978 4.22111 40.7537 5.00034 42.1089 5.78094C42.8723 6.2208 43.6354 6.66121 44.3985 7.10156C44.7032 7.27735 45.0079 7.45313 45.3126 7.62891C48.3595 9.38672 51.4064 11.1445 54.4532 12.9023C54.6042 12.9894 54.7551 13.0765 54.9106 13.1662C55.2141 13.3413 55.5175 13.5164 55.8209 13.6915C56.6016 14.142 57.3825 14.5921 58.1639 15.0414C60.911 16.6218 60.911 16.6218 62.1261 17.3496C62.2115 17.4007 62.2969 17.4518 62.3849 17.5044C62.9427 17.8411 62.9427 17.8411 63.1017 18C63.1367 18.3592 63.1626 18.7151 63.1824 19.0753C63.1889 19.1881 63.1955 19.3008 63.2023 19.417C63.2603 20.4651 63.296 21.5139 63.3245 22.5632C63.3441 23.2677 63.3713 23.9702 63.417 24.6736C63.6967 29.0851 63.6967 29.0851 62.9283 30.2061C62.0273 31.1934 60.7399 31.694 59.5135 32.1527C58.8987 32.3924 58.3619 32.7025 57.8074 33.0557C57.6458 33.1511 57.4839 33.2459 57.3216 33.34C55.8214 34.2183 54.3227 35.0988 52.836 36C53.2906 36.3784 53.7399 36.6945 54.2582 36.9789C54.3972 37.0558 54.5363 37.1327 54.6795 37.2119C54.9025 37.3342 54.9025 37.3342 55.13 37.459C58.7011 39.4374 58.7011 39.4374 59.9505 40.243C60.3611 40.4632 60.6754 40.5736 61.1178 40.6924C61.9642 40.9673 62.6161 41.2745 63.1017 42.0469C63.6532 43.7916 63.4182 45.8444 63.3589 47.6449C63.344 48.2085 63.3439 48.7716 63.3441 49.3354C63.3432 49.879 63.3356 50.4223 63.3258 50.9658C63.3214 51.2253 63.3185 51.4849 63.3172 51.7444C63.2982 53.753 63.2982 53.753 62.8376 54.3319C62.5112 54.5546 62.2038 54.7015 61.836 54.8438C61.6804 54.9369 61.5248 55.03 61.3644 55.126C61.2195 55.2078 61.0746 55.2896 60.9253 55.3738C60.8453 55.4192 60.7653 55.4646 60.6828 55.5114C60.4288 55.6555 60.1744 55.7989 59.92 55.9424C59.5697 56.1407 59.2197 56.3395 58.8697 56.5384C58.785 56.5866 58.7002 56.6347 58.6129 56.6844C57.778 57.1601 56.9566 57.656 56.1396 58.1616C55.7892 58.3594 55.7892 58.3594 55.5079 58.3594C55.3431 58.0609 55.1792 57.7621 55.0157 57.4629C54.9688 57.3781 54.9218 57.2932 54.8735 57.2058C54.5235 56.5631 54.5235 56.5631 54.5235 56.25C54.6068 56.2035 54.69 56.1569 54.7758 56.109C56.4365 55.1791 58.0884 54.2396 59.7095 53.2418C59.819 53.175 59.9286 53.1081 60.0414 53.0392C60.1372 52.9802 60.233 52.9211 60.3316 52.8603C60.5704 52.7344 60.5704 52.7344 60.8517 52.7344C60.8517 50.1356 60.8517 47.5369 60.8517 44.8594C58.9935 45.9271 57.1387 46.998 55.297 48.0938C53.9164 48.915 52.5292 49.7236 51.1365 50.5242C49.9829 51.1879 48.8334 51.8584 47.6857 52.5322C47.6004 52.5823 47.5151 52.6323 47.4273 52.6839C47.0873 52.8835 46.7473 53.0831 46.4073 53.2827C44.6425 54.3187 42.8767 55.3531 41.1026 56.373C40.952 56.4597 40.8014 56.5463 40.6462 56.6356C40.3204 56.8125 40.3204 56.8125 40.1798 56.8125C40.0132 54.1891 39.9043 51.5652 39.8527 48.937C39.8367 48.1393 39.8141 47.3428 39.7768 46.5458C39.5423 41.392 39.5423 41.392 40.3492 40.1718C41.1231 39.4565 42.0017 39.1069 42.9998 38.8054C43.56 38.6249 44.0169 38.3495 44.5073 38.0308C44.6616 37.9401 44.816 37.8495 44.975 37.756C45.127 37.6667 45.279 37.5774 45.4356 37.4854C46.7478 36.7149 48.063 35.9502 49.3819 35.1914C50.6232 34.4773 51.8594 33.7552 53.0912 33.0248C54.1586 32.392 55.2299 31.766 56.3028 31.1426C56.5696 30.9874 56.8339 30.828 57.0962 30.6654C57.5173 30.4156 57.9525 30.2331 58.4048 30.0464C59.9192 29.3987 59.9192 29.3987 60.8723 28.1343C61.098 26.9485 60.9932 25.7611 60.9044 24.5654C60.8889 24.2012 60.8748 23.8369 60.8621 23.4726C60.8282 22.5845 60.7766 21.6988 60.711 20.8125C58.687 21.9649 56.6654 23.121 54.6553 24.2975C53.6384 24.8924 52.6181 25.4812 51.5968 26.0684C50.3457 26.788 49.1015 27.5184 47.8614 28.2568C46.401 29.1261 44.9304 29.9754 43.4534 30.816C41.9799 31.6547 40.515 32.5075 39.0519 33.3641C38.3208 33.7921 37.5892 34.2193 36.8575 34.6465C36.7261 34.7234 36.5946 34.8003 36.4591 34.8795C35.4062 35.4943 34.3479 36.0981 33.2892 36.7031C33.2428 47.2373 33.1964 57.7716 33.1485 68.625C35.7966 67.1467 35.7966 67.1467 38.4165 65.6263C39.2142 65.1542 40.0181 64.6929 40.8214 64.2305C42.0159 63.5426 43.2085 62.8518 44.3985 62.1562C45.8857 61.2872 47.377 60.4256 48.8694 59.5657C50.0521 58.8842 51.2332 58.2 52.4142 57.5156C52.7539 57.8438 52.9839 58.1559 53.214 58.5703C53.2754 58.6791 53.3369 58.7878 53.4002 58.8999C53.5392 59.2031 53.5392 59.2031 53.5392 59.625C53.1678 59.8392 52.7964 60.0535 52.4251 60.2677C52.0968 60.4571 51.7686 60.6465 51.4403 60.8359C50.6086 61.3158 49.7768 61.7956 48.9447 62.2749C47.3347 63.2026 45.727 64.1339 44.1227 65.0715C42.9381 65.7634 41.7498 66.4489 40.561 67.1336C39.6805 67.6411 38.8012 68.1506 37.9237 68.6634C37.6483 68.8242 37.3728 68.9848 37.0971 69.145C36.4219 69.5375 35.7486 69.9327 35.0796 70.3355C34.7462 70.5357 34.4118 70.7341 34.0772 70.9322C33.8394 71.074 33.603 71.2182 33.3666 71.3625C33.2218 71.448 33.0769 71.5335 32.9277 71.6215C32.7368 71.7364 32.7368 71.7364 32.542 71.8536C32.0639 72.0389 31.8107 71.9969 31.3204 71.8594C30.9728 71.6962 30.9728 71.6962 30.6283 71.4891C30.4975 71.4116 30.3668 71.3341 30.232 71.2542C30.0923 71.1697 29.9526 71.0851 29.8087 70.998C29.5057 70.8179 29.2027 70.638 28.8996 70.4581C28.7428 70.3646 28.586 70.271 28.4245 70.1747C27.6449 69.7124 26.8591 69.2612 26.0733 68.8096C25.6538 68.568 25.2348 68.3267 24.82 68.077C24.4309 67.8506 24.0353 67.6678 23.6219 67.4903C21.8407 66.6769 21.8407 66.6769 21.4678 65.9382C21.2427 65.0962 21.3102 64.2378 21.3564 63.3763C21.3614 63.1011 21.3652 62.8258 21.3678 62.5506C21.378 61.8302 21.4041 61.1113 21.4338 60.3916C21.4613 59.6555 21.4734 58.9192 21.4868 58.1828C21.5154 56.741 21.5609 55.3003 21.6173 53.8594C21.0911 54.1598 20.5649 54.4603 20.0388 54.7608C19.8608 54.8625 19.6827 54.9642 19.5046 55.0659C18.4076 55.6922 17.3117 56.3206 16.2178 56.9523C15.7763 57.2072 15.3345 57.4614 14.8926 57.7156C14.3134 58.0495 13.7374 58.3882 13.1633 58.7307C13.028 58.8105 12.8926 58.8903 12.7532 58.9725C12.4998 59.122 12.2474 59.2731 11.996 59.426C11.884 59.4917 11.772 59.5573 11.6565 59.625C11.5598 59.683 11.463 59.741 11.3633 59.8008C10.9727 59.9414 10.7613 59.8877 10.3673 59.7656C10.0424 59.6069 10.0424 59.6069 9.70371 59.4053C9.57463 59.3292 9.44555 59.2531 9.31256 59.1747C9.17336 59.0912 9.03415 59.0078 8.89072 58.9219C8.58769 58.7426 8.28465 58.5633 7.9816 58.3841C7.81975 58.2879 7.65791 58.1917 7.49608 58.0955C6.97771 57.7877 6.45756 57.483 5.93705 57.1789C0.898794 54.2346 0.898794 54.2346 0.664158 54C0.649473 53.808 0.644437 53.6153 0.643318 53.4228C0.641728 53.2351 0.641729 53.2351 0.640106 53.0436C0.639653 52.9045 0.639198 52.7654 0.638731 52.6221C0.637718 52.4755 0.636704 52.329 0.63566 52.178C0.632444 51.6829 0.630269 51.1878 0.628109 50.6927C0.626079 50.3394 0.624003 49.9861 0.621887 49.6328C0.603556 46.4054 0.59427 43.1781 0.587033 39.9507C0.586047 39.5188 0.585046 39.0868 0.584027 38.6549C0.583774 38.5475 0.583521 38.4402 0.583261 38.3295C0.579033 36.5905 0.569927 34.8515 0.5589 33.1125C0.547677 31.3279 0.541235 29.5434 0.539358 27.7589C0.538175 26.7565 0.53483 25.7543 0.526046 24.752C0.517787 23.809 0.515927 22.8663 0.518435 21.9233C0.518311 21.5769 0.516012 21.2306 0.511397 20.8842C0.505426 20.4117 0.507236 19.9398 0.511015 19.4672C0.507424 19.3297 0.503833 19.1922 0.500134 19.0505C0.511808 18.4817 0.52041 18.1396 0.94028 17.7318C1.26201 17.5144 1.58349 17.3312 1.92978 17.1562C2.15331 17.0221 2.15331 17.0221 2.38136 16.8852C2.51821 16.8078 2.65506 16.7305 2.79606 16.6509C2.95243 16.5621 3.1088 16.4734 3.26991 16.3819C3.39144 16.3133 3.39144 16.3133 3.51543 16.2434C3.94968 15.9983 4.38301 15.7516 4.81644 15.505C4.90429 15.4551 4.99213 15.4052 5.08264 15.3537C5.96285 14.853 6.83851 14.3447 7.71299 13.834C7.84678 13.7559 7.98057 13.6779 8.11842 13.5975C8.24602 13.5229 8.37363 13.4483 8.5051 13.3715C8.62751 13.3004 8.74991 13.2293 8.87603 13.156C9.12865 13.0053 9.3782 12.8494 9.62502 12.6893C9.74779 12.6106 9.87056 12.5319 9.99705 12.4508C10.1599 12.343 10.1599 12.343 10.326 12.2331C10.7354 12.0562 10.9313 12.1013 11.3517 12.2344C11.6103 12.3482 11.6103 12.3482 11.8554 12.4865C11.9498 12.5393 12.0442 12.5921 12.1415 12.6464C12.2434 12.7048 12.3453 12.7631 12.4503 12.8232C12.5602 12.8852 12.67 12.9472 12.7832 13.011C13.8287 13.6034 14.8656 14.2106 15.9021 14.8183C17.2465 15.6059 18.5994 16.3779 19.9544 17.147C20.1143 17.238 20.2743 17.3289 20.439 17.4227C20.5817 17.5037 20.7245 17.5847 20.8716 17.6681C21.1954 17.8594 21.1954 17.8594 21.336 18C21.335 17.8504 21.3339 17.7007 21.3329 17.5466C21.3238 16.1354 21.3214 14.7244 21.3255 13.3132C21.3274 12.5877 21.3269 11.8624 21.3211 11.1369C21.3156 10.4366 21.3162 9.73647 21.3211 9.03613C21.3219 8.76914 21.3205 8.50214 21.3168 8.23517C21.2901 6.14729 21.2901 6.14729 21.7383 5.56817C22.0661 5.34473 22.3716 5.20105 22.7423 5.0625C22.9658 4.92831 22.9658 4.92831 23.1939 4.79141C23.3307 4.7141 23.4676 4.63679 23.6086 4.55713C23.7649 4.46837 23.9213 4.37962 24.0824 4.28817C24.1634 4.24245 24.2445 4.19673 24.3279 4.14963C24.7622 3.90453 25.1955 3.65781 25.6289 3.41125C25.7168 3.36133 25.8046 3.31141 25.8951 3.25997C26.7754 2.75925 27.651 2.25091 28.5255 1.74023C28.6593 1.6622 28.7931 1.58416 28.9309 1.50375C29.0585 1.42916 29.1861 1.35456 29.3176 1.27771C29.4402 1.20661 29.5628 1.1355 29.6891 1.06224C29.9403 0.912169 30.188 0.756238 30.4326 0.595596C31.337 0.0096005 31.337 0.00960052 31.8796 -0.0324097ZM30.336 3.31348C30.1938 3.39391 30.0516 3.47433 29.9051 3.5572C28.2499 4.49848 26.6202 5.4813 24.9923 6.46875C25.4716 6.8689 25.9534 7.19749 26.4969 7.50421C26.6536 7.59316 26.8104 7.68211 26.9719 7.77375C27.0546 7.82033 27.1374 7.86692 27.2226 7.91491C27.4835 8.06178 27.744 8.20938 28.0043 8.3572C28.2747 8.51073 28.5452 8.66422 28.8157 8.8175C29.7585 9.3517 30.698 9.89145 31.6368 10.4326C31.7863 10.5185 31.9358 10.6044 32.0898 10.6929C32.8746 11.1452 33.6495 11.6081 34.4142 12.0938C34.2155 12.7726 33.9319 13.3195 33.5704 13.9219C33.072 13.7328 32.613 13.5123 32.1482 13.2517C32.0092 13.1739 31.8701 13.0961 31.7268 13.0159C31.5782 12.932 31.4296 12.8481 31.2765 12.7617C31.1217 12.6747 30.9669 12.5876 30.8074 12.4979C28.6724 11.2935 26.55 10.0647 24.4577 8.78724C24.1157 8.54198 24.1157 8.54198 23.7267 8.4375C23.6842 9.8481 23.6518 11.2585 23.6319 12.6697C23.6224 13.325 23.6095 13.9799 23.5888 14.635C23.5688 15.2679 23.5579 15.9003 23.5532 16.5334C23.5498 16.7743 23.5433 17.0152 23.5334 17.2559C23.5036 18.0103 23.5051 18.6799 23.7267 19.4062C24.2784 19.9566 24.8391 20.2206 25.5548 20.5312C25.8516 20.7001 26.1467 20.8719 26.4392 21.0482C26.8947 21.3107 27.3512 21.5714 27.809 21.8299C28.5495 22.2497 29.2737 22.6736 29.9724 23.1603C30.8713 23.7877 30.8713 23.7877 31.8829 24.1875C32.578 24.0568 33.0247 23.7051 33.5631 23.2758C34.1308 22.8561 34.7627 22.5393 35.381 22.2012C36.5672 21.5341 37.7468 20.8556 38.923 20.1709C39.0642 20.0888 39.2055 20.0068 39.3511 19.9223C40.0161 19.5339 40.6707 19.1404 41.3048 18.7031C40.9752 18.3396 40.6311 18.1178 40.2034 17.8797C40.0687 17.8042 39.9341 17.7288 39.7953 17.651C39.6524 17.5719 39.5096 17.4927 39.3624 17.4111C39.0698 17.2475 38.7772 17.0838 38.4846 16.92C38.342 16.8405 38.1994 16.761 38.0524 16.679C37.5204 16.3814 36.9908 16.0797 36.462 15.7764C36.3085 15.6884 36.1549 15.6005 35.9967 15.5099C35.8922 15.4499 35.7876 15.3899 35.6798 15.3281C35.7723 14.8645 35.9462 14.5067 36.1808 14.0977C36.2448 13.9853 36.3087 13.8729 36.3747 13.7571C36.4238 13.6722 36.4729 13.5874 36.5235 13.5C37.0005 13.5942 37.3689 13.7778 37.7914 14.0158C38.0007 14.1333 38.0007 14.1333 38.2142 14.2531C38.364 14.3381 38.5138 14.4231 38.6681 14.5107C38.8232 14.5982 38.9783 14.6857 39.1381 14.7758C40.6262 15.6177 42.1035 16.4781 43.5777 17.344C44.2723 17.7516 44.9683 18.157 45.6642 18.5625C45.3245 18.9391 44.9596 19.1678 44.5199 19.4178C44.3737 19.5014 44.2275 19.5851 44.0769 19.6713C43.8402 19.8055 43.8402 19.8055 43.5987 19.9424C43.349 20.085 43.0994 20.2278 42.8498 20.3707C42.6792 20.4683 42.5085 20.5659 42.3378 20.6634C41.5216 21.1296 40.7098 21.6032 39.8985 22.0781C38.5548 22.8637 37.208 23.644 35.8577 24.4182C35.1725 24.8117 34.4904 25.2081 33.8176 25.6223C33.7077 25.6894 33.5977 25.7565 33.4844 25.8257C33.2851 25.948 33.0868 26.0719 32.8898 26.1979C32.2528 26.5873 32.2528 26.5873 31.8248 26.5431C31.4451 26.4329 31.1461 26.2897 30.8035 26.0931C30.6142 25.9853 30.6142 25.9853 30.4211 25.8754C30.2857 25.7969 30.1503 25.7185 30.0108 25.6377C29.8679 25.5559 29.725 25.4741 29.5778 25.3899C28.4364 24.735 27.3001 24.0713 26.1646 23.4063C25.0749 22.7686 23.9799 22.1406 22.8829 21.5156C21.5166 20.737 20.1549 19.9508 18.7975 19.1567C17.603 18.4581 16.4057 17.7643 15.2052 17.076C14.4947 16.6683 13.7875 16.2571 13.088 15.8307C12.9662 15.7574 12.8443 15.684 12.7188 15.6084C12.4944 15.4728 12.2711 15.3355 12.0491 15.1959C11.9502 15.1366 11.8513 15.0772 11.7494 15.0161C11.6651 14.964 11.5809 14.9119 11.4941 14.8582C10.9597 14.6834 10.5019 14.8425 10.0085 15.0762C9.89037 15.1472 9.77219 15.2182 9.65043 15.2913C9.44853 15.4111 9.44853 15.4111 9.24256 15.5332C9.10035 15.6193 8.95814 15.7053 8.81162 15.7939C8.51122 15.9726 8.21074 16.1511 7.91019 16.3295C7.75826 16.4201 7.60633 16.5108 7.4498 16.6041C6.73938 17.0247 6.02242 17.4336 5.30478 17.8418C5.11334 17.9509 5.11334 17.9509 4.91803 18.0622C4.62516 18.2291 4.33221 18.3959 4.03916 18.5625C4.51846 18.9627 5.00028 19.2912 5.54374 19.598C5.70029 19.6868 5.85684 19.7756 6.01814 19.8672C6.10086 19.9137 6.18358 19.9603 6.26881 20.0083C6.622 20.2071 6.97441 20.4073 7.3269 20.6074C7.50925 20.7109 7.69164 20.8143 7.87407 20.9176C8.76055 21.4199 9.64336 21.9285 10.5255 22.4385C10.675 22.5248 10.8245 22.6112 10.9785 22.7001C11.2802 22.8744 11.5819 23.0487 11.8835 23.223C12.6435 23.662 13.4039 24.1005 14.1642 24.5391C14.4689 24.7148 14.7735 24.8906 15.0782 25.0664C15.3045 25.1969 15.3045 25.1969 15.5353 25.3301C18.4298 27 21.3243 28.6699 24.2189 30.3398C24.3699 30.427 24.5209 30.5141 24.6765 30.6039C24.9791 30.7785 25.2818 30.9531 25.5844 31.1278C26.2931 31.5368 27.002 31.9456 27.7114 32.3534C27.9619 32.4974 28.2124 32.6415 28.4629 32.7857C28.7766 32.9662 29.0905 33.1466 29.4044 33.3268C29.5469 33.4088 29.6894 33.4908 29.8362 33.5753C29.9705 33.6524 30.1049 33.7295 30.2433 33.8089C30.6712 34.0633 31.0816 34.3384 31.4862 34.6283C31.8574 34.782 32.0652 34.7123 32.4454 34.5938C32.8214 34.4075 32.8214 34.4075 33.2062 34.1669C33.355 34.0774 33.5038 33.988 33.657 33.8958C33.7358 33.8478 33.8146 33.7998 33.8958 33.7503C34.3203 33.4918 34.7469 33.2369 35.1733 32.9815C35.2616 32.9285 35.3498 32.8756 35.4408 32.821C36.3653 32.2675 37.3005 31.7333 38.2374 31.2012C39.8793 30.2673 41.5131 29.3203 43.1432 28.3659C45.1649 27.1824 47.1899 26.0049 49.2198 24.8355C50.6623 24.0039 52.1006 23.1652 53.5381 22.325C54.1221 21.9841 54.7066 21.6441 55.2911 21.3041C55.8477 20.9799 56.4035 20.6544 56.9593 20.329C57.3108 20.1241 57.6635 19.9214 58.0166 19.7194C58.2117 19.6062 58.4067 19.4931 58.6017 19.3799C58.7332 19.306 58.7332 19.306 58.8673 19.2306C59.1268 19.0836 59.1268 19.0836 59.4454 18.8438C59.4454 18.7045 59.4454 18.5653 59.4454 18.4219C59.3651 18.3768 59.2848 18.3317 59.2021 18.2853C57.5094 17.3344 55.8243 16.3721 54.1492 15.3907C53.0594 14.7531 51.9643 14.125 50.8673 13.5C49.5002 12.721 48.1379 11.9343 46.7798 11.1398C45.2998 10.2744 43.8144 9.41854 42.3289 8.56281C41.5654 8.12295 40.8023 7.68254 40.0392 7.24219C39.1136 6.70818 38.188 6.17421 37.2624 5.64038C37.1062 5.5503 36.95 5.46022 36.7891 5.3674C36.4809 5.18964 36.1727 5.01192 35.8644 4.83422C35.1543 4.42473 34.4446 4.01444 33.7363 3.60187C33.6111 3.52904 33.4859 3.45621 33.357 3.38118C33.1242 3.24567 32.8916 3.10991 32.6591 2.97386C31.5996 2.35728 31.3685 2.72847 30.336 3.31348ZM2.91416 20.6719C2.91416 31.2525 2.91416 41.8331 2.91416 52.7344C4.12072 53.4305 5.32728 54.1266 6.57041 54.8438C8.5333 56.0059 8.5333 56.0059 9.42222 56.5375C9.63853 56.6833 9.63853 56.6833 9.80479 56.6719C9.80479 53.3306 9.80479 49.9894 9.80479 46.5469C10.5473 46.5469 11.2898 46.5469 12.0548 46.5469C12.0548 49.8881 12.0548 53.2294 12.0548 56.6719C13.0752 56.1153 14.0929 55.5564 15.1046 54.9844C15.2418 54.9068 15.3791 54.8292 15.5205 54.7492C17.0925 53.858 18.656 52.9517 20.211 52.0312C20.3284 51.9845 20.4458 51.9378 20.5667 51.8897C20.9936 51.6949 21.2882 51.524 21.6173 51.1875C21.8161 50.4843 21.7815 49.797 21.7546 49.0748C21.752 48.868 21.75 48.6611 21.7486 48.4542C21.7432 47.9116 21.7294 47.3695 21.7138 46.8271C21.6994 46.2729 21.693 45.7186 21.686 45.1642C21.6709 44.078 21.6469 42.9922 21.6173 41.9062C21.52 41.8519 21.4227 41.7976 21.3225 41.7417C17.8008 39.7754 17.8008 39.7754 16.3438 38.918C16.2071 38.838 16.0704 38.758 15.9296 38.6757C15.2829 38.297 14.6376 37.9163 13.9939 37.5326C13.8823 37.4663 13.7707 37.4 13.6558 37.3317C13.4498 37.2091 13.2442 37.086 13.0389 36.9623C12.5789 36.663 12.5789 36.663 12.0548 36.5625C12.0548 39.2077 12.0548 41.8528 12.0548 44.5781C11.3123 44.5781 10.5698 44.5781 9.80479 44.5781C9.80479 40.6336 9.80479 36.6891 9.80479 32.625C11.966 33.86 14.1245 35.094 16.2724 36.351C17.3251 36.9663 18.3829 37.5727 19.4401 38.18C20.552 38.8206 21.6542 39.4759 22.7474 40.148C22.8545 40.2132 22.9615 40.2784 23.0719 40.3456C23.2115 40.4315 23.2115 40.4315 23.354 40.5192C23.5839 40.6624 23.5839 40.6624 23.8673 40.6406C23.8656 40.7642 23.8639 40.8879 23.8622 41.0152C23.8218 44.0245 23.7915 47.0338 23.7726 50.0433C23.7631 51.4987 23.7503 52.9539 23.7294 54.4092C23.7111 55.6778 23.6994 56.9463 23.6953 58.215C23.6929 58.8868 23.6873 59.5581 23.674 60.2298C23.6616 60.8624 23.6578 61.4945 23.6605 62.1273C23.66 62.3591 23.6564 62.5908 23.6494 62.8225C23.6289 63.5321 23.637 64.1517 23.8673 64.8281C24.4245 65.3596 24.9885 65.644 25.6954 65.9531C25.8801 66.0578 26.0635 66.1649 26.2443 66.2762C26.3916 66.3601 26.539 66.444 26.6908 66.5305C26.7726 66.5771 26.8544 66.6238 26.9387 66.6719C27.1921 66.8164 27.4457 66.9604 27.6993 67.1045C27.87 67.2018 28.0406 67.2991 28.2113 67.3965C29.1041 67.9052 30.0002 68.4072 30.8985 68.9062C30.8985 58.2792 30.8985 47.6522 30.8985 36.7031C29.5992 35.9606 28.2998 35.2181 26.961 34.4531C25.8928 33.8376 24.8247 33.222 23.7573 32.6052C22.9973 32.1661 22.237 31.7276 21.4767 31.2891C21.172 31.1133 20.8673 30.9375 20.5626 30.7617C20.4118 30.6747 20.261 30.5877 20.1056 30.498C11.422 25.4883 11.422 25.4883 10.9645 25.2244C10.6612 25.0494 10.3579 24.8744 10.0546 24.6994C9.27178 24.2478 8.48904 23.7962 7.7064 23.3443C6.94312 22.9037 6.17968 22.4633 5.41609 22.0232C5.16916 21.8808 4.92228 21.7384 4.67547 21.5958C4.39029 21.4311 4.1049 21.2668 3.81943 21.1025C3.67133 21.0172 3.52323 20.9318 3.37064 20.8438C3.09414 20.6607 3.09414 20.6607 2.91416 20.6719ZM49.5627 37.7271C49.437 37.798 49.3114 37.869 49.182 37.9421C48.9764 38.0597 48.9764 38.0597 48.7667 38.1797C48.6252 38.2602 48.4838 38.3406 48.338 38.4235C47.18 39.0851 46.0296 39.7593 44.8819 40.4385C44.8004 40.4867 44.7189 40.5348 44.635 40.5845C44.4005 40.7232 44.1663 40.8623 43.9322 41.0015C43.7311 41.121 43.7311 41.121 43.5259 41.243C43.3962 41.3226 43.2665 41.4023 43.1329 41.4844C42.9876 41.5603 42.8422 41.6363 42.6925 41.7146C42.2443 42.0135 42.2443 42.0135 42.1877 42.5256C42.1853 42.7186 42.1875 42.9118 42.1934 43.1047C42.1933 43.2104 42.1931 43.3161 42.193 43.425C42.1936 43.7736 42.2001 44.1219 42.2068 44.4705C42.2083 44.7124 42.2095 44.9544 42.2104 45.1964C42.2136 45.8326 42.2219 46.4688 42.2312 47.105C42.2399 47.7545 42.2437 48.4039 42.248 49.0534C42.257 50.3273 42.2714 51.6012 42.2892 52.875C42.8165 52.6691 43.2971 52.4346 43.7888 52.1532C44.0225 52.0197 44.0225 52.0197 44.261 51.8834C44.4299 51.7863 44.5988 51.689 44.7677 51.5918C44.9441 51.4906 45.1205 51.3895 45.2969 51.2883C46.6447 50.5141 47.9826 49.7239 49.3182 48.9287C50.5511 48.1953 51.7914 47.4755 53.0351 46.7605C54.0844 46.1571 55.1309 45.5493 56.1759 44.9385C57.3556 44.249 58.5379 43.5645 59.7267 42.8906C59.2474 42.4905 58.7655 42.1619 58.2221 41.8552C58.0653 41.7662 57.9086 41.6772 57.747 41.5856C57.5778 41.4903 57.4086 41.3951 57.2394 41.2998C56.9753 41.1502 56.7113 41.0004 56.4474 40.8506C56.2662 40.7479 56.0851 40.6451 55.9039 40.5425C54.9574 40.0062 54.0152 39.4625 53.0733 38.918C52.4315 38.547 52.4315 38.547 51.7893 38.1767C51.5653 38.0471 51.3419 37.9167 51.1192 37.785C50.4314 37.3806 50.2488 37.3382 49.5627 37.7271Z"/>
</mask>
<path d="M31.8796 -0.0324097C32.5409 0.236728 33.148 0.580516 33.7638 0.94043C33.9769 1.06296 33.9769 1.06296 34.1943 1.18797C34.6434 1.44679 35.0914 1.70754 35.5392 1.96875C35.8173 2.13043 36.0954 2.29212 36.3736 2.4538C36.9321 2.77899 37.4901 3.10507 38.0479 3.43158C39.3978 4.22111 40.7537 5.00034 42.1089 5.78094C42.8723 6.2208 43.6354 6.66121 44.3985 7.10156C44.7032 7.27735 45.0079 7.45313 45.3126 7.62891C48.3595 9.38672 51.4064 11.1445 54.4532 12.9023C54.6042 12.9894 54.7551 13.0765 54.9106 13.1662C55.2141 13.3413 55.5175 13.5164 55.8209 13.6915C56.6016 14.142 57.3825 14.5921 58.1639 15.0414C60.911 16.6218 60.911 16.6218 62.1261 17.3496C62.2115 17.4007 62.2969 17.4518 62.3849 17.5044C62.9427 17.8411 62.9427 17.8411 63.1017 18C63.1367 18.3592 63.1626 18.7151 63.1824 19.0753C63.1889 19.1881 63.1955 19.3008 63.2023 19.417C63.2603 20.4651 63.296 21.5139 63.3245 22.5632C63.3441 23.2677 63.3713 23.9702 63.417 24.6736C63.6967 29.0851 63.6967 29.0851 62.9283 30.2061C62.0273 31.1934 60.7399 31.694 59.5135 32.1527C58.8987 32.3924 58.3619 32.7025 57.8074 33.0557C57.6458 33.1511 57.4839 33.2459 57.3216 33.34C55.8214 34.2183 54.3227 35.0988 52.836 36C53.2906 36.3784 53.7399 36.6945 54.2582 36.9789C54.3972 37.0558 54.5363 37.1327 54.6795 37.2119C54.9025 37.3342 54.9025 37.3342 55.13 37.459C58.7011 39.4374 58.7011 39.4374 59.9505 40.243C60.3611 40.4632 60.6754 40.5736 61.1178 40.6924C61.9642 40.9673 62.6161 41.2745 63.1017 42.0469C63.6532 43.7916 63.4182 45.8444 63.3589 47.6449C63.344 48.2085 63.3439 48.7716 63.3441 49.3354C63.3432 49.879 63.3356 50.4223 63.3258 50.9658C63.3214 51.2253 63.3185 51.4849 63.3172 51.7444C63.2982 53.753 63.2982 53.753 62.8376 54.3319C62.5112 54.5546 62.2038 54.7015 61.836 54.8438C61.6804 54.9369 61.5248 55.03 61.3644 55.126C61.2195 55.2078 61.0746 55.2896 60.9253 55.3738C60.8453 55.4192 60.7653 55.4646 60.6828 55.5114C60.4288 55.6555 60.1744 55.7989 59.92 55.9424C59.5697 56.1407 59.2197 56.3395 58.8697 56.5384C58.785 56.5866 58.7002 56.6347 58.6129 56.6844C57.778 57.1601 56.9566 57.656 56.1396 58.1616C55.7892 58.3594 55.7892 58.3594 55.5079 58.3594C55.3431 58.0609 55.1792 57.7621 55.0157 57.4629C54.9688 57.3781 54.9218 57.2932 54.8735 57.2058C54.5235 56.5631 54.5235 56.5631 54.5235 56.25C54.6068 56.2035 54.69 56.1569 54.7758 56.109C56.4365 55.1791 58.0884 54.2396 59.7095 53.2418C59.819 53.175 59.9286 53.1081 60.0414 53.0392C60.1372 52.9802 60.233 52.9211 60.3316 52.8603C60.5704 52.7344 60.5704 52.7344 60.8517 52.7344C60.8517 50.1356 60.8517 47.5369 60.8517 44.8594C58.9935 45.9271 57.1387 46.998 55.297 48.0938C53.9164 48.915 52.5292 49.7236 51.1365 50.5242C49.9829 51.1879 48.8334 51.8584 47.6857 52.5322C47.6004 52.5823 47.5151 52.6323 47.4273 52.6839C47.0873 52.8835 46.7473 53.0831 46.4073 53.2827C44.6425 54.3187 42.8767 55.3531 41.1026 56.373C40.952 56.4597 40.8014 56.5463 40.6462 56.6356C40.3204 56.8125 40.3204 56.8125 40.1798 56.8125C40.0132 54.1891 39.9043 51.5652 39.8527 48.937C39.8367 48.1393 39.8141 47.3428 39.7768 46.5458C39.5423 41.392 39.5423 41.392 40.3492 40.1718C41.1231 39.4565 42.0017 39.1069 42.9998 38.8054C43.56 38.6249 44.0169 38.3495 44.5073 38.0308C44.6616 37.9401 44.816 37.8495 44.975 37.756C45.127 37.6667 45.279 37.5774 45.4356 37.4854C46.7478 36.7149 48.063 35.9502 49.3819 35.1914C50.6232 34.4773 51.8594 33.7552 53.0912 33.0248C54.1586 32.392 55.2299 31.766 56.3028 31.1426C56.5696 30.9874 56.8339 30.828 57.0962 30.6654C57.5173 30.4156 57.9525 30.2331 58.4048 30.0464C59.9192 29.3987 59.9192 29.3987 60.8723 28.1343C61.098 26.9485 60.9932 25.7611 60.9044 24.5654C60.8889 24.2012 60.8748 23.8369 60.8621 23.4726C60.8282 22.5845 60.7766 21.6988 60.711 20.8125C58.687 21.9649 56.6654 23.121 54.6553 24.2975C53.6384 24.8924 52.6181 25.4812 51.5968 26.0684C50.3457 26.788 49.1015 27.5184 47.8614 28.2568C46.401 29.1261 44.9304 29.9754 43.4534 30.816C41.9799 31.6547 40.515 32.5075 39.0519 33.3641C38.3208 33.7921 37.5892 34.2193 36.8575 34.6465C36.7261 34.7234 36.5946 34.8003 36.4591 34.8795C35.4062 35.4943 34.3479 36.0981 33.2892 36.7031C33.2428 47.2373 33.1964 57.7716 33.1485 68.625C35.7966 67.1467 35.7966 67.1467 38.4165 65.6263C39.2142 65.1542 40.0181 64.6929 40.8214 64.2305C42.0159 63.5426 43.2085 62.8518 44.3985 62.1562C45.8857 61.2872 47.377 60.4256 48.8694 59.5657C50.0521 58.8842 51.2332 58.2 52.4142 57.5156C52.7539 57.8438 52.9839 58.1559 53.214 58.5703C53.2754 58.6791 53.3369 58.7878 53.4002 58.8999C53.5392 59.2031 53.5392 59.2031 53.5392 59.625C53.1678 59.8392 52.7964 60.0535 52.4251 60.2677C52.0968 60.4571 51.7686 60.6465 51.4403 60.8359C50.6086 61.3158 49.7768 61.7956 48.9447 62.2749C47.3347 63.2026 45.727 64.1339 44.1227 65.0715C42.9381 65.7634 41.7498 66.4489 40.561 67.1336C39.6805 67.6411 38.8012 68.1506 37.9237 68.6634C37.6483 68.8242 37.3728 68.9848 37.0971 69.145C36.4219 69.5375 35.7486 69.9327 35.0796 70.3355C34.7462 70.5357 34.4118 70.7341 34.0772 70.9322C33.8394 71.074 33.603 71.2182 33.3666 71.3625C33.2218 71.448 33.0769 71.5335 32.9277 71.6215C32.7368 71.7364 32.7368 71.7364 32.542 71.8536C32.0639 72.0389 31.8107 71.9969 31.3204 71.8594C30.9728 71.6962 30.9728 71.6962 30.6283 71.4891C30.4975 71.4116 30.3668 71.3341 30.232 71.2542C30.0923 71.1697 29.9526 71.0851 29.8087 70.998C29.5057 70.8179 29.2027 70.638 28.8996 70.4581C28.7428 70.3646 28.586 70.271 28.4245 70.1747C27.6449 69.7124 26.8591 69.2612 26.0733 68.8096C25.6538 68.568 25.2348 68.3267 24.82 68.077C24.4309 67.8506 24.0353 67.6678 23.6219 67.4903C21.8407 66.6769 21.8407 66.6769 21.4678 65.9382C21.2427 65.0962 21.3102 64.2378 21.3564 63.3763C21.3614 63.1011 21.3652 62.8258 21.3678 62.5506C21.378 61.8302 21.4041 61.1113 21.4338 60.3916C21.4613 59.6555 21.4734 58.9192 21.4868 58.1828C21.5154 56.741 21.5609 55.3003 21.6173 53.8594C21.0911 54.1598 20.5649 54.4603 20.0388 54.7608C19.8608 54.8625 19.6827 54.9642 19.5046 55.0659C18.4076 55.6922 17.3117 56.3206 16.2178 56.9523C15.7763 57.2072 15.3345 57.4614 14.8926 57.7156C14.3134 58.0495 13.7374 58.3882 13.1633 58.7307C13.028 58.8105 12.8926 58.8903 12.7532 58.9725C12.4998 59.122 12.2474 59.2731 11.996 59.426C11.884 59.4917 11.772 59.5573 11.6565 59.625C11.5598 59.683 11.463 59.741 11.3633 59.8008C10.9727 59.9414 10.7613 59.8877 10.3673 59.7656C10.0424 59.6069 10.0424 59.6069 9.70371 59.4053C9.57463 59.3292 9.44555 59.2531 9.31256 59.1747C9.17336 59.0912 9.03415 59.0078 8.89072 58.9219C8.58769 58.7426 8.28465 58.5633 7.9816 58.3841C7.81975 58.2879 7.65791 58.1917 7.49608 58.0955C6.97771 57.7877 6.45756 57.483 5.93705 57.1789C0.898794 54.2346 0.898794 54.2346 0.664158 54C0.649473 53.808 0.644437 53.6153 0.643318 53.4228C0.641728 53.2351 0.641729 53.2351 0.640106 53.0436C0.639653 52.9045 0.639198 52.7654 0.638731 52.6221C0.637718 52.4755 0.636704 52.329 0.63566 52.178C0.632444 51.6829 0.630269 51.1878 0.628109 50.6927C0.626079 50.3394 0.624003 49.9861 0.621887 49.6328C0.603556 46.4054 0.59427 43.1781 0.587033 39.9507C0.586047 39.5188 0.585046 39.0868 0.584027 38.6549C0.583774 38.5475 0.583521 38.4402 0.583261 38.3295C0.579033 36.5905 0.569927 34.8515 0.5589 33.1125C0.547677 31.3279 0.541235 29.5434 0.539358 27.7589C0.538175 26.7565 0.53483 25.7543 0.526046 24.752C0.517787 23.809 0.515927 22.8663 0.518435 21.9233C0.518311 21.5769 0.516012 21.2306 0.511397 20.8842C0.505426 20.4117 0.507236 19.9398 0.511015 19.4672C0.507424 19.3297 0.503833 19.1922 0.500134 19.0505C0.511808 18.4817 0.52041 18.1396 0.94028 17.7318C1.26201 17.5144 1.58349 17.3312 1.92978 17.1562C2.15331 17.0221 2.15331 17.0221 2.38136 16.8852C2.51821 16.8078 2.65506 16.7305 2.79606 16.6509C2.95243 16.5621 3.1088 16.4734 3.26991 16.3819C3.39144 16.3133 3.39144 16.3133 3.51543 16.2434C3.94968 15.9983 4.38301 15.7516 4.81644 15.505C4.90429 15.4551 4.99213 15.4052 5.08264 15.3537C5.96285 14.853 6.83851 14.3447 7.71299 13.834C7.84678 13.7559 7.98057 13.6779 8.11842 13.5975C8.24602 13.5229 8.37363 13.4483 8.5051 13.3715C8.62751 13.3004 8.74991 13.2293 8.87603 13.156C9.12865 13.0053 9.3782 12.8494 9.62502 12.6893C9.74779 12.6106 9.87056 12.5319 9.99705 12.4508C10.1599 12.343 10.1599 12.343 10.326 12.2331C10.7354 12.0562 10.9313 12.1013 11.3517 12.2344C11.6103 12.3482 11.6103 12.3482 11.8554 12.4865C11.9498 12.5393 12.0442 12.5921 12.1415 12.6464C12.2434 12.7048 12.3453 12.7631 12.4503 12.8232C12.5602 12.8852 12.67 12.9472 12.7832 13.011C13.8287 13.6034 14.8656 14.2106 15.9021 14.8183C17.2465 15.6059 18.5994 16.3779 19.9544 17.147C20.1143 17.238 20.2743 17.3289 20.439 17.4227C20.5817 17.5037 20.7245 17.5847 20.8716 17.6681C21.1954 17.8594 21.1954 17.8594 21.336 18C21.335 17.8504 21.3339 17.7007 21.3329 17.5466C21.3238 16.1354 21.3214 14.7244 21.3255 13.3132C21.3274 12.5877 21.3269 11.8624 21.3211 11.1369C21.3156 10.4366 21.3162 9.73647 21.3211 9.03613C21.3219 8.76914 21.3205 8.50214 21.3168 8.23517C21.2901 6.14729 21.2901 6.14729 21.7383 5.56817C22.0661 5.34473 22.3716 5.20105 22.7423 5.0625C22.9658 4.92831 22.9658 4.92831 23.1939 4.79141C23.3307 4.7141 23.4676 4.63679 23.6086 4.55713C23.7649 4.46837 23.9213 4.37962 24.0824 4.28817C24.1634 4.24245 24.2445 4.19673 24.3279 4.14963C24.7622 3.90453 25.1955 3.65781 25.6289 3.41125C25.7168 3.36133 25.8046 3.31141 25.8951 3.25997C26.7754 2.75925 27.651 2.25091 28.5255 1.74023C28.6593 1.6622 28.7931 1.58416 28.9309 1.50375C29.0585 1.42916 29.1861 1.35456 29.3176 1.27771C29.4402 1.20661 29.5628 1.1355 29.6891 1.06224C29.9403 0.912169 30.188 0.756238 30.4326 0.595596C31.337 0.0096005 31.337 0.00960052 31.8796 -0.0324097ZM30.336 3.31348C30.1938 3.39391 30.0516 3.47433 29.9051 3.5572C28.2499 4.49848 26.6202 5.4813 24.9923 6.46875C25.4716 6.8689 25.9534 7.19749 26.4969 7.50421C26.6536 7.59316 26.8104 7.68211 26.9719 7.77375C27.0546 7.82033 27.1374 7.86692 27.2226 7.91491C27.4835 8.06178 27.744 8.20938 28.0043 8.3572C28.2747 8.51073 28.5452 8.66422 28.8157 8.8175C29.7585 9.3517 30.698 9.89145 31.6368 10.4326C31.7863 10.5185 31.9358 10.6044 32.0898 10.6929C32.8746 11.1452 33.6495 11.6081 34.4142 12.0938C34.2155 12.7726 33.9319 13.3195 33.5704 13.9219C33.072 13.7328 32.613 13.5123 32.1482 13.2517C32.0092 13.1739 31.8701 13.0961 31.7268 13.0159C31.5782 12.932 31.4296 12.8481 31.2765 12.7617C31.1217 12.6747 30.9669 12.5876 30.8074 12.4979C28.6724 11.2935 26.55 10.0647 24.4577 8.78724C24.1157 8.54198 24.1157 8.54198 23.7267 8.4375C23.6842 9.8481 23.6518 11.2585 23.6319 12.6697C23.6224 13.325 23.6095 13.9799 23.5888 14.635C23.5688 15.2679 23.5579 15.9003 23.5532 16.5334C23.5498 16.7743 23.5433 17.0152 23.5334 17.2559C23.5036 18.0103 23.5051 18.6799 23.7267 19.4062C24.2784 19.9566 24.8391 20.2206 25.5548 20.5312C25.8516 20.7001 26.1467 20.8719 26.4392 21.0482C26.8947 21.3107 27.3512 21.5714 27.809 21.8299C28.5495 22.2497 29.2737 22.6736 29.9724 23.1603C30.8713 23.7877 30.8713 23.7877 31.8829 24.1875C32.578 24.0568 33.0247 23.7051 33.5631 23.2758C34.1308 22.8561 34.7627 22.5393 35.381 22.2012C36.5672 21.5341 37.7468 20.8556 38.923 20.1709C39.0642 20.0888 39.2055 20.0068 39.3511 19.9223C40.0161 19.5339 40.6707 19.1404 41.3048 18.7031C40.9752 18.3396 40.6311 18.1178 40.2034 17.8797C40.0687 17.8042 39.9341 17.7288 39.7953 17.651C39.6524 17.5719 39.5096 17.4927 39.3624 17.4111C39.0698 17.2475 38.7772 17.0838 38.4846 16.92C38.342 16.8405 38.1994 16.761 38.0524 16.679C37.5204 16.3814 36.9908 16.0797 36.462 15.7764C36.3085 15.6884 36.1549 15.6005 35.9967 15.5099C35.8922 15.4499 35.7876 15.3899 35.6798 15.3281C35.7723 14.8645 35.9462 14.5067 36.1808 14.0977C36.2448 13.9853 36.3087 13.8729 36.3747 13.7571C36.4238 13.6722 36.4729 13.5874 36.5235 13.5C37.0005 13.5942 37.3689 13.7778 37.7914 14.0158C38.0007 14.1333 38.0007 14.1333 38.2142 14.2531C38.364 14.3381 38.5138 14.4231 38.6681 14.5107C38.8232 14.5982 38.9783 14.6857 39.1381 14.7758C40.6262 15.6177 42.1035 16.4781 43.5777 17.344C44.2723 17.7516 44.9683 18.157 45.6642 18.5625C45.3245 18.9391 44.9596 19.1678 44.5199 19.4178C44.3737 19.5014 44.2275 19.5851 44.0769 19.6713C43.8402 19.8055 43.8402 19.8055 43.5987 19.9424C43.349 20.085 43.0994 20.2278 42.8498 20.3707C42.6792 20.4683 42.5085 20.5659 42.3378 20.6634C41.5216 21.1296 40.7098 21.6032 39.8985 22.0781C38.5548 22.8637 37.208 23.644 35.8577 24.4182C35.1725 24.8117 34.4904 25.2081 33.8176 25.6223C33.7077 25.6894 33.5977 25.7565 33.4844 25.8257C33.2851 25.948 33.0868 26.0719 32.8898 26.1979C32.2528 26.5873 32.2528 26.5873 31.8248 26.5431C31.4451 26.4329 31.1461 26.2897 30.8035 26.0931C30.6142 25.9853 30.6142 25.9853 30.4211 25.8754C30.2857 25.7969 30.1503 25.7185 30.0108 25.6377C29.8679 25.5559 29.725 25.4741 29.5778 25.3899C28.4364 24.735 27.3001 24.0713 26.1646 23.4063C25.0749 22.7686 23.9799 22.1406 22.8829 21.5156C21.5166 20.737 20.1549 19.9508 18.7975 19.1567C17.603 18.4581 16.4057 17.7643 15.2052 17.076C14.4947 16.6683 13.7875 16.2571 13.088 15.8307C12.9662 15.7574 12.8443 15.684 12.7188 15.6084C12.4944 15.4728 12.2711 15.3355 12.0491 15.1959C11.9502 15.1366 11.8513 15.0772 11.7494 15.0161C11.6651 14.964 11.5809 14.9119 11.4941 14.8582C10.9597 14.6834 10.5019 14.8425 10.0085 15.0762C9.89037 15.1472 9.77219 15.2182 9.65043 15.2913C9.44853 15.4111 9.44853 15.4111 9.24256 15.5332C9.10035 15.6193 8.95814 15.7053 8.81162 15.7939C8.51122 15.9726 8.21074 16.1511 7.91019 16.3295C7.75826 16.4201 7.60633 16.5108 7.4498 16.6041C6.73938 17.0247 6.02242 17.4336 5.30478 17.8418C5.11334 17.9509 5.11334 17.9509 4.91803 18.0622C4.62516 18.2291 4.33221 18.3959 4.03916 18.5625C4.51846 18.9627 5.00028 19.2912 5.54374 19.598C5.70029 19.6868 5.85684 19.7756 6.01814 19.8672C6.10086 19.9137 6.18358 19.9603 6.26881 20.0083C6.622 20.2071 6.97441 20.4073 7.3269 20.6074C7.50925 20.7109 7.69164 20.8143 7.87407 20.9176C8.76055 21.4199 9.64336 21.9285 10.5255 22.4385C10.675 22.5248 10.8245 22.6112 10.9785 22.7001C11.2802 22.8744 11.5819 23.0487 11.8835 23.223C12.6435 23.662 13.4039 24.1005 14.1642 24.5391C14.4689 24.7148 14.7735 24.8906 15.0782 25.0664C15.3045 25.1969 15.3045 25.1969 15.5353 25.3301C18.4298 27 21.3243 28.6699 24.2189 30.3398C24.3699 30.427 24.5209 30.5141 24.6765 30.6039C24.9791 30.7785 25.2818 30.9531 25.5844 31.1278C26.2931 31.5368 27.002 31.9456 27.7114 32.3534C27.9619 32.4974 28.2124 32.6415 28.4629 32.7857C28.7766 32.9662 29.0905 33.1466 29.4044 33.3268C29.5469 33.4088 29.6894 33.4908 29.8362 33.5753C29.9705 33.6524 30.1049 33.7295 30.2433 33.8089C30.6712 34.0633 31.0816 34.3384 31.4862 34.6283C31.8574 34.782 32.0652 34.7123 32.4454 34.5938C32.8214 34.4075 32.8214 34.4075 33.2062 34.1669C33.355 34.0774 33.5038 33.988 33.657 33.8958C33.7358 33.8478 33.8146 33.7998 33.8958 33.7503C34.3203 33.4918 34.7469 33.2369 35.1733 32.9815C35.2616 32.9285 35.3498 32.8756 35.4408 32.821C36.3653 32.2675 37.3005 31.7333 38.2374 31.2012C39.8793 30.2673 41.5131 29.3203 43.1432 28.3659C45.1649 27.1824 47.1899 26.0049 49.2198 24.8355C50.6623 24.0039 52.1006 23.1652 53.5381 22.325C54.1221 21.9841 54.7066 21.6441 55.2911 21.3041C55.8477 20.9799 56.4035 20.6544 56.9593 20.329C57.3108 20.1241 57.6635 19.9214 58.0166 19.7194C58.2117 19.6062 58.4067 19.4931 58.6017 19.3799C58.7332 19.306 58.7332 19.306 58.8673 19.2306C59.1268 19.0836 59.1268 19.0836 59.4454 18.8438C59.4454 18.7045 59.4454 18.5653 59.4454 18.4219C59.3651 18.3768 59.2848 18.3317 59.2021 18.2853C57.5094 17.3344 55.8243 16.3721 54.1492 15.3907C53.0594 14.7531 51.9643 14.125 50.8673 13.5C49.5002 12.721 48.1379 11.9343 46.7798 11.1398C45.2998 10.2744 43.8144 9.41854 42.3289 8.56281C41.5654 8.12295 40.8023 7.68254 40.0392 7.24219C39.1136 6.70818 38.188 6.17421 37.2624 5.64038C37.1062 5.5503 36.95 5.46022 36.7891 5.3674C36.4809 5.18964 36.1727 5.01192 35.8644 4.83422C35.1543 4.42473 34.4446 4.01444 33.7363 3.60187C33.6111 3.52904 33.4859 3.45621 33.357 3.38118C33.1242 3.24567 32.8916 3.10991 32.6591 2.97386C31.5996 2.35728 31.3685 2.72847 30.336 3.31348ZM2.91416 20.6719C2.91416 31.2525 2.91416 41.8331 2.91416 52.7344C4.12072 53.4305 5.32728 54.1266 6.57041 54.8438C8.5333 56.0059 8.5333 56.0059 9.42222 56.5375C9.63853 56.6833 9.63853 56.6833 9.80479 56.6719C9.80479 53.3306 9.80479 49.9894 9.80479 46.5469C10.5473 46.5469 11.2898 46.5469 12.0548 46.5469C12.0548 49.8881 12.0548 53.2294 12.0548 56.6719C13.0752 56.1153 14.0929 55.5564 15.1046 54.9844C15.2418 54.9068 15.3791 54.8292 15.5205 54.7492C17.0925 53.858 18.656 52.9517 20.211 52.0312C20.3284 51.9845 20.4458 51.9378 20.5667 51.8897C20.9936 51.6949 21.2882 51.524 21.6173 51.1875C21.8161 50.4843 21.7815 49.797 21.7546 49.0748C21.752 48.868 21.75 48.6611 21.7486 48.4542C21.7432 47.9116 21.7294 47.3695 21.7138 46.8271C21.6994 46.2729 21.693 45.7186 21.686 45.1642C21.6709 44.078 21.6469 42.9922 21.6173 41.9062C21.52 41.8519 21.4227 41.7976 21.3225 41.7417C17.8008 39.7754 17.8008 39.7754 16.3438 38.918C16.2071 38.838 16.0704 38.758 15.9296 38.6757C15.2829 38.297 14.6376 37.9163 13.9939 37.5326C13.8823 37.4663 13.7707 37.4 13.6558 37.3317C13.4498 37.2091 13.2442 37.086 13.0389 36.9623C12.5789 36.663 12.5789 36.663 12.0548 36.5625C12.0548 39.2077 12.0548 41.8528 12.0548 44.5781C11.3123 44.5781 10.5698 44.5781 9.80479 44.5781C9.80479 40.6336 9.80479 36.6891 9.80479 32.625C11.966 33.86 14.1245 35.094 16.2724 36.351C17.3251 36.9663 18.3829 37.5727 19.4401 38.18C20.552 38.8206 21.6542 39.4759 22.7474 40.148C22.8545 40.2132 22.9615 40.2784 23.0719 40.3456C23.2115 40.4315 23.2115 40.4315 23.354 40.5192C23.5839 40.6624 23.5839 40.6624 23.8673 40.6406C23.8656 40.7642 23.8639 40.8879 23.8622 41.0152C23.8218 44.0245 23.7915 47.0338 23.7726 50.0433C23.7631 51.4987 23.7503 52.9539 23.7294 54.4092C23.7111 55.6778 23.6994 56.9463 23.6953 58.215C23.6929 58.8868 23.6873 59.5581 23.674 60.2298C23.6616 60.8624 23.6578 61.4945 23.6605 62.1273C23.66 62.3591 23.6564 62.5908 23.6494 62.8225C23.6289 63.5321 23.637 64.1517 23.8673 64.8281C24.4245 65.3596 24.9885 65.644 25.6954 65.9531C25.8801 66.0578 26.0635 66.1649 26.2443 66.2762C26.3916 66.3601 26.539 66.444 26.6908 66.5305C26.7726 66.5771 26.8544 66.6238 26.9387 66.6719C27.1921 66.8164 27.4457 66.9604 27.6993 67.1045C27.87 67.2018 28.0406 67.2991 28.2113 67.3965C29.1041 67.9052 30.0002 68.4072 30.8985 68.9062C30.8985 58.2792 30.8985 47.6522 30.8985 36.7031C29.5992 35.9606 28.2998 35.2181 26.961 34.4531C25.8928 33.8376 24.8247 33.222 23.7573 32.6052C22.9973 32.1661 22.237 31.7276 21.4767 31.2891C21.172 31.1133 20.8673 30.9375 20.5626 30.7617C20.4118 30.6747 20.261 30.5877 20.1056 30.498C11.422 25.4883 11.422 25.4883 10.9645 25.2244C10.6612 25.0494 10.3579 24.8744 10.0546 24.6994C9.27178 24.2478 8.48904 23.7962 7.7064 23.3443C6.94312 22.9037 6.17968 22.4633 5.41609 22.0232C5.16916 21.8808 4.92228 21.7384 4.67547 21.5958C4.39029 21.4311 4.1049 21.2668 3.81943 21.1025C3.67133 21.0172 3.52323 20.9318 3.37064 20.8438C3.09414 20.6607 3.09414 20.6607 2.91416 20.6719ZM49.5627 37.7271C49.437 37.798 49.3114 37.869 49.182 37.9421C48.9764 38.0597 48.9764 38.0597 48.7667 38.1797C48.6252 38.2602 48.4838 38.3406 48.338 38.4235C47.18 39.0851 46.0296 39.7593 44.8819 40.4385C44.8004 40.4867 44.7189 40.5348 44.635 40.5845C44.4005 40.7232 44.1663 40.8623 43.9322 41.0015C43.7311 41.121 43.7311 41.121 43.5259 41.243C43.3962 41.3226 43.2665 41.4023 43.1329 41.4844C42.9876 41.5603 42.8422 41.6363 42.6925 41.7146C42.2443 42.0135 42.2443 42.0135 42.1877 42.5256C42.1853 42.7186 42.1875 42.9118 42.1934 43.1047C42.1933 43.2104 42.1931 43.3161 42.193 43.425C42.1936 43.7736 42.2001 44.1219 42.2068 44.4705C42.2083 44.7124 42.2095 44.9544 42.2104 45.1964C42.2136 45.8326 42.2219 46.4688 42.2312 47.105C42.2399 47.7545 42.2437 48.4039 42.248 49.0534C42.257 50.3273 42.2714 51.6012 42.2892 52.875C42.8165 52.6691 43.2971 52.4346 43.7888 52.1532C44.0225 52.0197 44.0225 52.0197 44.261 51.8834C44.4299 51.7863 44.5988 51.689 44.7677 51.5918C44.9441 51.4906 45.1205 51.3895 45.2969 51.2883C46.6447 50.5141 47.9826 49.7239 49.3182 48.9287C50.5511 48.1953 51.7914 47.4755 53.0351 46.7605C54.0844 46.1571 55.1309 45.5493 56.1759 44.9385C57.3556 44.249 58.5379 43.5645 59.7267 42.8906C59.2474 42.4905 58.7655 42.1619 58.2221 41.8552C58.0653 41.7662 57.9086 41.6772 57.747 41.5856C57.5778 41.4903 57.4086 41.3951 57.2394 41.2998C56.9753 41.1502 56.7113 41.0004 56.4474 40.8506C56.2662 40.7479 56.0851 40.6451 55.9039 40.5425C54.9574 40.0062 54.0152 39.4625 53.0733 38.918C52.4315 38.547 52.4315 38.547 51.7893 38.1767C51.5653 38.0471 51.3419 37.9167 51.1192 37.785C50.4314 37.3806 50.2488 37.3382 49.5627 37.7271Z" fill="#7DF9FF"/>
<path d="M31.8796 -0.0324097C32.5409 0.236728 33.148 0.580516 33.7638 0.94043C33.9769 1.06296 33.9769 1.06296 34.1943 1.18797C34.6434 1.44679 35.0914 1.70754 35.5392 1.96875C35.8173 2.13043 36.0954 2.29212 36.3736 2.4538C36.9321 2.77899 37.4901 3.10507 38.0479 3.43158C39.3978 4.22111 40.7537 5.00034 42.1089 5.78094C42.8723 6.2208 43.6354 6.66121 44.3985 7.10156C44.7032 7.27735 45.0079 7.45313 45.3126 7.62891C48.3595 9.38672 51.4064 11.1445 54.4532 12.9023C54.6042 12.9894 54.7551 13.0765 54.9106 13.1662C55.2141 13.3413 55.5175 13.5164 55.8209 13.6915C56.6016 14.142 57.3825 14.5921 58.1639 15.0414C60.911 16.6218 60.911 16.6218 62.1261 17.3496C62.2115 17.4007 62.2969 17.4518 62.3849 17.5044C62.9427 17.8411 62.9427 17.8411 63.1017 18C63.1367 18.3592 63.1626 18.7151 63.1824 19.0753C63.1889 19.1881 63.1955 19.3008 63.2023 19.417C63.2603 20.4651 63.296 21.5139 63.3245 22.5632C63.3441 23.2677 63.3713 23.9702 63.417 24.6736C63.6967 29.0851 63.6967 29.0851 62.9283 30.2061C62.0273 31.1934 60.7399 31.694 59.5135 32.1527C58.8987 32.3924 58.3619 32.7025 57.8074 33.0557C57.6458 33.1511 57.4839 33.2459 57.3216 33.34C55.8214 34.2183 54.3227 35.0988 52.836 36C53.2906 36.3784 53.7399 36.6945 54.2582 36.9789C54.3972 37.0558 54.5363 37.1327 54.6795 37.2119C54.9025 37.3342 54.9025 37.3342 55.13 37.459C58.7011 39.4374 58.7011 39.4374 59.9505 40.243C60.3611 40.4632 60.6754 40.5736 61.1178 40.6924C61.9642 40.9673 62.6161 41.2745 63.1017 42.0469C63.6532 43.7916 63.4182 45.8444 63.3589 47.6449C63.344 48.2085 63.3439 48.7716 63.3441 49.3354C63.3432 49.879 63.3356 50.4223 63.3258 50.9658C63.3214 51.2253 63.3185 51.4849 63.3172 51.7444C63.2982 53.753 63.2982 53.753 62.8376 54.3319C62.5112 54.5546 62.2038 54.7015 61.836 54.8438C61.6804 54.9369 61.5248 55.03 61.3644 55.126C61.2195 55.2078 61.0746 55.2896 60.9253 55.3738C60.8453 55.4192 60.7653 55.4646 60.6828 55.5114C60.4288 55.6555 60.1744 55.7989 59.92 55.9424C59.5697 56.1407 59.2197 56.3395 58.8697 56.5384C58.785 56.5866 58.7002 56.6347 58.6129 56.6844C57.778 57.1601 56.9566 57.656 56.1396 58.1616C55.7892 58.3594 55.7892 58.3594 55.5079 58.3594C55.3431 58.0609 55.1792 57.7621 55.0157 57.4629C54.9688 57.3781 54.9218 57.2932 54.8735 57.2058C54.5235 56.5631 54.5235 56.5631 54.5235 56.25C54.6068 56.2035 54.69 56.1569 54.7758 56.109C56.4365 55.1791 58.0884 54.2396 59.7095 53.2418C59.819 53.175 59.9286 53.1081 60.0414 53.0392C60.1372 52.9802 60.233 52.9211 60.3316 52.8603C60.5704 52.7344 60.5704 52.7344 60.8517 52.7344C60.8517 50.1356 60.8517 47.5369 60.8517 44.8594C58.9935 45.9271 57.1387 46.998 55.297 48.0938C53.9164 48.915 52.5292 49.7236 51.1365 50.5242C49.9829 51.1879 48.8334 51.8584 47.6857 52.5322C47.6004 52.5823 47.5151 52.6323 47.4273 52.6839C47.0873 52.8835 46.7473 53.0831 46.4073 53.2827C44.6425 54.3187 42.8767 55.3531 41.1026 56.373C40.952 56.4597 40.8014 56.5463 40.6462 56.6356C40.3204 56.8125 40.3204 56.8125 40.1798 56.8125C40.0132 54.1891 39.9043 51.5652 39.8527 48.937C39.8367 48.1393 39.8141 47.3428 39.7768 46.5458C39.5423 41.392 39.5423 41.392 40.3492 40.1718C41.1231 39.4565 42.0017 39.1069 42.9998 38.8054C43.56 38.6249 44.0169 38.3495 44.5073 38.0308C44.6616 37.9401 44.816 37.8495 44.975 37.756C45.127 37.6667 45.279 37.5774 45.4356 37.4854C46.7478 36.7149 48.063 35.9502 49.3819 35.1914C50.6232 34.4773 51.8594 33.7552 53.0912 33.0248C54.1586 32.392 55.2299 31.766 56.3028 31.1426C56.5696 30.9874 56.8339 30.828 57.0962 30.6654C57.5173 30.4156 57.9525 30.2331 58.4048 30.0464C59.9192 29.3987 59.9192 29.3987 60.8723 28.1343C61.098 26.9485 60.9932 25.7611 60.9044 24.5654C60.8889 24.2012 60.8748 23.8369 60.8621 23.4726C60.8282 22.5845 60.7766 21.6988 60.711 20.8125C58.687 21.9649 56.6654 23.121 54.6553 24.2975C53.6384 24.8924 52.6181 25.4812 51.5968 26.0684C50.3457 26.788 49.1015 27.5184 47.8614 28.2568C46.401 29.1261 44.9304 29.9754 43.4534 30.816C41.9799 31.6547 40.515 32.5075 39.0519 33.3641C38.3208 33.7921 37.5892 34.2193 36.8575 34.6465C36.7261 34.7234 36.5946 34.8003 36.4591 34.8795C35.4062 35.4943 34.3479 36.0981 33.2892 36.7031C33.2428 47.2373 33.1964 57.7716 33.1485 68.625C35.7966 67.1467 35.7966 67.1467 38.4165 65.6263C39.2142 65.1542 40.0181 64.6929 40.8214 64.2305C42.0159 63.5426 43.2085 62.8518 44.3985 62.1562C45.8857 61.2872 47.377 60.4256 48.8694 59.5657C50.0521 58.8842 51.2332 58.2 52.4142 57.5156C52.7539 57.8438 52.9839 58.1559 53.214 58.5703C53.2754 58.6791 53.3369 58.7878 53.4002 58.8999C53.5392 59.2031 53.5392 59.2031 53.5392 59.625C53.1678 59.8392 52.7964 60.0535 52.4251 60.2677C52.0968 60.4571 51.7686 60.6465 51.4403 60.8359C50.6086 61.3158 49.7768 61.7956 48.9447 62.2749C47.3347 63.2026 45.727 64.1339 44.1227 65.0715C42.9381 65.7634 41.7498 66.4489 40.561 67.1336C39.6805 67.6411 38.8012 68.1506 37.9237 68.6634C37.6483 68.8242 37.3728 68.9848 37.0971 69.145C36.4219 69.5375 35.7486 69.9327 35.0796 70.3355C34.7462 70.5357 34.4118 70.7341 34.0772 70.9322C33.8394 71.074 33.603 71.2182 33.3666 71.3625C33.2218 71.448 33.0769 71.5335 32.9277 71.6215C32.7368 71.7364 32.7368 71.7364 32.542 71.8536C32.0639 72.0389 31.8107 71.9969 31.3204 71.8594C30.9728 71.6962 30.9728 71.6962 30.6283 71.4891C30.4975 71.4116 30.3668 71.3341 30.232 71.2542C30.0923 71.1697 29.9526 71.0851 29.8087 70.998C29.5057 70.8179 29.2027 70.638 28.8996 70.4581C28.7428 70.3646 28.586 70.271 28.4245 70.1747C27.6449 69.7124 26.8591 69.2612 26.0733 68.8096C25.6538 68.568 25.2348 68.3267 24.82 68.077C24.4309 67.8506 24.0353 67.6678 23.6219 67.4903C21.8407 66.6769 21.8407 66.6769 21.4678 65.9382C21.2427 65.0962 21.3102 64.2378 21.3564 63.3763C21.3614 63.1011 21.3652 62.8258 21.3678 62.5506C21.378 61.8302 21.4041 61.1113 21.4338 60.3916C21.4613 59.6555 21.4734 58.9192 21.4868 58.1828C21.5154 56.741 21.5609 55.3003 21.6173 53.8594C21.0911 54.1598 20.5649 54.4603 20.0388 54.7608C19.8608 54.8625 19.6827 54.9642 19.5046 55.0659C18.4076 55.6922 17.3117 56.3206 16.2178 56.9523C15.7763 57.2072 15.3345 57.4614 14.8926 57.7156C14.3134 58.0495 13.7374 58.3882 13.1633 58.7307C13.028 58.8105 12.8926 58.8903 12.7532 58.9725C12.4998 59.122 12.2474 59.2731 11.996 59.426C11.884 59.4917 11.772 59.5573 11.6565 59.625C11.5598 59.683 11.463 59.741 11.3633 59.8008C10.9727 59.9414 10.7613 59.8877 10.3673 59.7656C10.0424 59.6069 10.0424 59.6069 9.70371 59.4053C9.57463 59.3292 9.44555 59.2531 9.31256 59.1747C9.17336 59.0912 9.03415 59.0078 8.89072 58.9219C8.58769 58.7426 8.28465 58.5633 7.9816 58.3841C7.81975 58.2879 7.65791 58.1917 7.49608 58.0955C6.97771 57.7877 6.45756 57.483 5.93705 57.1789C0.898794 54.2346 0.898794 54.2346 0.664158 54C0.649473 53.808 0.644437 53.6153 0.643318 53.4228C0.641728 53.2351 0.641729 53.2351 0.640106 53.0436C0.639653 52.9045 0.639198 52.7654 0.638731 52.6221C0.637718 52.4755 0.636704 52.329 0.63566 52.178C0.632444 51.6829 0.630269 51.1878 0.628109 50.6927C0.626079 50.3394 0.624003 49.9861 0.621887 49.6328C0.603556 46.4054 0.59427 43.1781 0.587033 39.9507C0.586047 39.5188 0.585046 39.0868 0.584027 38.6549C0.583774 38.5475 0.583521 38.4402 0.583261 38.3295C0.579033 36.5905 0.569927 34.8515 0.5589 33.1125C0.547677 31.3279 0.541235 29.5434 0.539358 27.7589C0.538175 26.7565 0.53483 25.7543 0.526046 24.752C0.517787 23.809 0.515927 22.8663 0.518435 21.9233C0.518311 21.5769 0.516012 21.2306 0.511397 20.8842C0.505426 20.4117 0.507236 19.9398 0.511015 19.4672C0.507424 19.3297 0.503833 19.1922 0.500134 19.0505C0.511808 18.4817 0.52041 18.1396 0.94028 17.7318C1.26201 17.5144 1.58349 17.3312 1.92978 17.1562C2.15331 17.0221 2.15331 17.0221 2.38136 16.8852C2.51821 16.8078 2.65506 16.7305 2.79606 16.6509C2.95243 16.5621 3.1088 16.4734 3.26991 16.3819C3.39144 16.3133 3.39144 16.3133 3.51543 16.2434C3.94968 15.9983 4.38301 15.7516 4.81644 15.505C4.90429 15.4551 4.99213 15.4052 5.08264 15.3537C5.96285 14.853 6.83851 14.3447 7.71299 13.834C7.84678 13.7559 7.98057 13.6779 8.11842 13.5975C8.24602 13.5229 8.37363 13.4483 8.5051 13.3715C8.62751 13.3004 8.74991 13.2293 8.87603 13.156C9.12865 13.0053 9.3782 12.8494 9.62502 12.6893C9.74779 12.6106 9.87056 12.5319 9.99705 12.4508C10.1599 12.343 10.1599 12.343 10.326 12.2331C10.7354 12.0562 10.9313 12.1013 11.3517 12.2344C11.6103 12.3482 11.6103 12.3482 11.8554 12.4865C11.9498 12.5393 12.0442 12.5921 12.1415 12.6464C12.2434 12.7048 12.3453 12.7631 12.4503 12.8232C12.5602 12.8852 12.67 12.9472 12.7832 13.011C13.8287 13.6034 14.8656 14.2106 15.9021 14.8183C17.2465 15.6059 18.5994 16.3779 19.9544 17.147C20.1143 17.238 20.2743 17.3289 20.439 17.4227C20.5817 17.5037 20.7245 17.5847 20.8716 17.6681C21.1954 17.8594 21.1954 17.8594 21.336 18C21.335 17.8504 21.3339 17.7007 21.3329 17.5466C21.3238 16.1354 21.3214 14.7244 21.3255 13.3132C21.3274 12.5877 21.3269 11.8624 21.3211 11.1369C21.3156 10.4366 21.3162 9.73647 21.3211 9.03613C21.3219 8.76914 21.3205 8.50214 21.3168 8.23517C21.2901 6.14729 21.2901 6.14729 21.7383 5.56817C22.0661 5.34473 22.3716 5.20105 22.7423 5.0625C22.9658 4.92831 22.9658 4.92831 23.1939 4.79141C23.3307 4.7141 23.4676 4.63679 23.6086 4.55713C23.7649 4.46837 23.9213 4.37962 24.0824 4.28817C24.1634 4.24245 24.2445 4.19673 24.3279 4.14963C24.7622 3.90453 25.1955 3.65781 25.6289 3.41125C25.7168 3.36133 25.8046 3.31141 25.8951 3.25997C26.7754 2.75925 27.651 2.25091 28.5255 1.74023C28.6593 1.6622 28.7931 1.58416 28.9309 1.50375C29.0585 1.42916 29.1861 1.35456 29.3176 1.27771C29.4402 1.20661 29.5628 1.1355 29.6891 1.06224C29.9403 0.912169 30.188 0.756238 30.4326 0.595596C31.337 0.0096005 31.337 0.00960052 31.8796 -0.0324097ZM30.336 3.31348C30.1938 3.39391 30.0516 3.47433 29.9051 3.5572C28.2499 4.49848 26.6202 5.4813 24.9923 6.46875C25.4716 6.8689 25.9534 7.19749 26.4969 7.50421C26.6536 7.59316 26.8104 7.68211 26.9719 7.77375C27.0546 7.82033 27.1374 7.86692 27.2226 7.91491C27.4835 8.06178 27.744 8.20938 28.0043 8.3572C28.2747 8.51073 28.5452 8.66422 28.8157 8.8175C29.7585 9.3517 30.698 9.89145 31.6368 10.4326C31.7863 10.5185 31.9358 10.6044 32.0898 10.6929C32.8746 11.1452 33.6495 11.6081 34.4142 12.0938C34.2155 12.7726 33.9319 13.3195 33.5704 13.9219C33.072 13.7328 32.613 13.5123 32.1482 13.2517C32.0092 13.1739 31.8701 13.0961 31.7268 13.0159C31.5782 12.932 31.4296 12.8481 31.2765 12.7617C31.1217 12.6747 30.9669 12.5876 30.8074 12.4979C28.6724 11.2935 26.55 10.0647 24.4577 8.78724C24.1157 8.54198 24.1157 8.54198 23.7267 8.4375C23.6842 9.8481 23.6518 11.2585 23.6319 12.6697C23.6224 13.325 23.6095 13.9799 23.5888 14.635C23.5688 15.2679 23.5579 15.9003 23.5532 16.5334C23.5498 16.7743 23.5433 17.0152 23.5334 17.2559C23.5036 18.0103 23.5051 18.6799 23.7267 19.4062C24.2784 19.9566 24.8391 20.2206 25.5548 20.5312C25.8516 20.7001 26.1467 20.8719 26.4392 21.0482C26.8947 21.3107 27.3512 21.5714 27.809 21.8299C28.5495 22.2497 29.2737 22.6736 29.9724 23.1603C30.8713 23.7877 30.8713 23.7877 31.8829 24.1875C32.578 24.0568 33.0247 23.7051 33.5631 23.2758C34.1308 22.8561 34.7627 22.5393 35.381 22.2012C36.5672 21.5341 37.7468 20.8556 38.923 20.1709C39.0642 20.0888 39.2055 20.0068 39.3511 19.9223C40.0161 19.5339 40.6707 19.1404 41.3048 18.7031C40.9752 18.3396 40.6311 18.1178 40.2034 17.8797C40.0687 17.8042 39.9341 17.7288 39.7953 17.651C39.6524 17.5719 39.5096 17.4927 39.3624 17.4111C39.0698 17.2475 38.7772 17.0838 38.4846 16.92C38.342 16.8405 38.1994 16.761 38.0524 16.679C37.5204 16.3814 36.9908 16.0797 36.462 15.7764C36.3085 15.6884 36.1549 15.6005 35.9967 15.5099C35.8922 15.4499 35.7876 15.3899 35.6798 15.3281C35.7723 14.8645 35.9462 14.5067 36.1808 14.0977C36.2448 13.9853 36.3087 13.8729 36.3747 13.7571C36.4238 13.6722 36.4729 13.5874 36.5235 13.5C37.0005 13.5942 37.3689 13.7778 37.7914 14.0158C38.0007 14.1333 38.0007 14.1333 38.2142 14.2531C38.364 14.3381 38.5138 14.4231 38.6681 14.5107C38.8232 14.5982 38.9783 14.6857 39.1381 14.7758C40.6262 15.6177 42.1035 16.4781 43.5777 17.344C44.2723 17.7516 44.9683 18.157 45.6642 18.5625C45.3245 18.9391 44.9596 19.1678 44.5199 19.4178C44.3737 19.5014 44.2275 19.5851 44.0769 19.6713C43.8402 19.8055 43.8402 19.8055 43.5987 19.9424C43.349 20.085 43.0994 20.2278 42.8498 20.3707C42.6792 20.4683 42.5085 20.5659 42.3378 20.6634C41.5216 21.1296 40.7098 21.6032 39.8985 22.0781C38.5548 22.8637 37.208 23.644 35.8577 24.4182C35.1725 24.8117 34.4904 25.2081 33.8176 25.6223C33.7077 25.6894 33.5977 25.7565 33.4844 25.8257C33.2851 25.948 33.0868 26.0719 32.8898 26.1979C32.2528 26.5873 32.2528 26.5873 31.8248 26.5431C31.4451 26.4329 31.1461 26.2897 30.8035 26.0931C30.6142 25.9853 30.6142 25.9853 30.4211 25.8754C30.2857 25.7969 30.1503 25.7185 30.0108 25.6377C29.8679 25.5559 29.725 25.4741 29.5778 25.3899C28.4364 24.735 27.3001 24.0713 26.1646 23.4063C25.0749 22.7686 23.9799 22.1406 22.8829 21.5156C21.5166 20.737 20.1549 19.9508 18.7975 19.1567C17.603 18.4581 16.4057 17.7643 15.2052 17.076C14.4947 16.6683 13.7875 16.2571 13.088 15.8307C12.9662 15.7574 12.8443 15.684 12.7188 15.6084C12.4944 15.4728 12.2711 15.3355 12.0491 15.1959C11.9502 15.1366 11.8513 15.0772 11.7494 15.0161C11.6651 14.964 11.5809 14.9119 11.4941 14.8582C10.9597 14.6834 10.5019 14.8425 10.0085 15.0762C9.89037 15.1472 9.77219 15.2182 9.65043 15.2913C9.44853 15.4111 9.44853 15.4111 9.24256 15.5332C9.10035 15.6193 8.95814 15.7053 8.81162 15.7939C8.51122 15.9726 8.21074 16.1511 7.91019 16.3295C7.75826 16.4201 7.60633 16.5108 7.4498 16.6041C6.73938 17.0247 6.02242 17.4336 5.30478 17.8418C5.11334 17.9509 5.11334 17.9509 4.91803 18.0622C4.62516 18.2291 4.33221 18.3959 4.03916 18.5625C4.51846 18.9627 5.00028 19.2912 5.54374 19.598C5.70029 19.6868 5.85684 19.7756 6.01814 19.8672C6.10086 19.9137 6.18358 19.9603 6.26881 20.0083C6.622 20.2071 6.97441 20.4073 7.3269 20.6074C7.50925 20.7109 7.69164 20.8143 7.87407 20.9176C8.76055 21.4199 9.64336 21.9285 10.5255 22.4385C10.675 22.5248 10.8245 22.6112 10.9785 22.7001C11.2802 22.8744 11.5819 23.0487 11.8835 23.223C12.6435 23.662 13.4039 24.1005 14.1642 24.5391C14.4689 24.7148 14.7735 24.8906 15.0782 25.0664C15.3045 25.1969 15.3045 25.1969 15.5353 25.3301C18.4298 27 21.3243 28.6699 24.2189 30.3398C24.3699 30.427 24.5209 30.5141 24.6765 30.6039C24.9791 30.7785 25.2818 30.9531 25.5844 31.1278C26.2931 31.5368 27.002 31.9456 27.7114 32.3534C27.9619 32.4974 28.2124 32.6415 28.4629 32.7857C28.7766 32.9662 29.0905 33.1466 29.4044 33.3268C29.5469 33.4088 29.6894 33.4908 29.8362 33.5753C29.9705 33.6524 30.1049 33.7295 30.2433 33.8089C30.6712 34.0633 31.0816 34.3384 31.4862 34.6283C31.8574 34.782 32.0652 34.7123 32.4454 34.5938C32.8214 34.4075 32.8214 34.4075 33.2062 34.1669C33.355 34.0774 33.5038 33.988 33.657 33.8958C33.7358 33.8478 33.8146 33.7998 33.8958 33.7503C34.3203 33.4918 34.7469 33.2369 35.1733 32.9815C35.2616 32.9285 35.3498 32.8756 35.4408 32.821C36.3653 32.2675 37.3005 31.7333 38.2374 31.2012C39.8793 30.2673 41.5131 29.3203 43.1432 28.3659C45.1649 27.1824 47.1899 26.0049 49.2198 24.8355C50.6623 24.0039 52.1006 23.1652 53.5381 22.325C54.1221 21.9841 54.7066 21.6441 55.2911 21.3041C55.8477 20.9799 56.4035 20.6544 56.9593 20.329C57.3108 20.1241 57.6635 19.9214 58.0166 19.7194C58.2117 19.6062 58.4067 19.4931 58.6017 19.3799C58.7332 19.306 58.7332 19.306 58.8673 19.2306C59.1268 19.0836 59.1268 19.0836 59.4454 18.8438C59.4454 18.7045 59.4454 18.5653 59.4454 18.4219C59.3651 18.3768 59.2848 18.3317 59.2021 18.2853C57.5094 17.3344 55.8243 16.3721 54.1492 15.3907C53.0594 14.7531 51.9643 14.125 50.8673 13.5C49.5002 12.721 48.1379 11.9343 46.7798 11.1398C45.2998 10.2744 43.8144 9.41854 42.3289 8.56281C41.5654 8.12295 40.8023 7.68254 40.0392 7.24219C39.1136 6.70818 38.188 6.17421 37.2624 5.64038C37.1062 5.5503 36.95 5.46022 36.7891 5.3674C36.4809 5.18964 36.1727 5.01192 35.8644 4.83422C35.1543 4.42473 34.4446 4.01444 33.7363 3.60187C33.6111 3.52904 33.4859 3.45621 33.357 3.38118C33.1242 3.24567 32.8916 3.10991 32.6591 2.97386C31.5996 2.35728 31.3685 2.72847 30.336 3.31348ZM2.91416 20.6719C2.91416 31.2525 2.91416 41.8331 2.91416 52.7344C4.12072 53.4305 5.32728 54.1266 6.57041 54.8438C8.5333 56.0059 8.5333 56.0059 9.42222 56.5375C9.63853 56.6833 9.63853 56.6833 9.80479 56.6719C9.80479 53.3306 9.80479 49.9894 9.80479 46.5469C10.5473 46.5469 11.2898 46.5469 12.0548 46.5469C12.0548 49.8881 12.0548 53.2294 12.0548 56.6719C13.0752 56.1153 14.0929 55.5564 15.1046 54.9844C15.2418 54.9068 15.3791 54.8292 15.5205 54.7492C17.0925 53.858 18.656 52.9517 20.211 52.0312C20.3284 51.9845 20.4458 51.9378 20.5667 51.8897C20.9936 51.6949 21.2882 51.524 21.6173 51.1875C21.8161 50.4843 21.7815 49.797 21.7546 49.0748C21.752 48.868 21.75 48.6611 21.7486 48.4542C21.7432 47.9116 21.7294 47.3695 21.7138 46.8271C21.6994 46.2729 21.693 45.7186 21.686 45.1642C21.6709 44.078 21.6469 42.9922 21.6173 41.9062C21.52 41.8519 21.4227 41.7976 21.3225 41.7417C17.8008 39.7754 17.8008 39.7754 16.3438 38.918C16.2071 38.838 16.0704 38.758 15.9296 38.6757C15.2829 38.297 14.6376 37.9163 13.9939 37.5326C13.8823 37.4663 13.7707 37.4 13.6558 37.3317C13.4498 37.2091 13.2442 37.086 13.0389 36.9623C12.5789 36.663 12.5789 36.663 12.0548 36.5625C12.0548 39.2077 12.0548 41.8528 12.0548 44.5781C11.3123 44.5781 10.5698 44.5781 9.80479 44.5781C9.80479 40.6336 9.80479 36.6891 9.80479 32.625C11.966 33.86 14.1245 35.094 16.2724 36.351C17.3251 36.9663 18.3829 37.5727 19.4401 38.18C20.552 38.8206 21.6542 39.4759 22.7474 40.148C22.8545 40.2132 22.9615 40.2784 23.0719 40.3456C23.2115 40.4315 23.2115 40.4315 23.354 40.5192C23.5839 40.6624 23.5839 40.6624 23.8673 40.6406C23.8656 40.7642 23.8639 40.8879 23.8622 41.0152C23.8218 44.0245 23.7915 47.0338 23.7726 50.0433C23.7631 51.4987 23.7503 52.9539 23.7294 54.4092C23.7111 55.6778 23.6994 56.9463 23.6953 58.215C23.6929 58.8868 23.6873 59.5581 23.674 60.2298C23.6616 60.8624 23.6578 61.4945 23.6605 62.1273C23.66 62.3591 23.6564 62.5908 23.6494 62.8225C23.6289 63.5321 23.637 64.1517 23.8673 64.8281C24.4245 65.3596 24.9885 65.644 25.6954 65.9531C25.8801 66.0578 26.0635 66.1649 26.2443 66.2762C26.3916 66.3601 26.539 66.444 26.6908 66.5305C26.7726 66.5771 26.8544 66.6238 26.9387 66.6719C27.1921 66.8164 27.4457 66.9604 27.6993 67.1045C27.87 67.2018 28.0406 67.2991 28.2113 67.3965C29.1041 67.9052 30.0002 68.4072 30.8985 68.9062C30.8985 58.2792 30.8985 47.6522 30.8985 36.7031C29.5992 35.9606 28.2998 35.2181 26.961 34.4531C25.8928 33.8376 24.8247 33.222 23.7573 32.6052C22.9973 32.1661 22.237 31.7276 21.4767 31.2891C21.172 31.1133 20.8673 30.9375 20.5626 30.7617C20.4118 30.6747 20.261 30.5877 20.1056 30.498C11.422 25.4883 11.422 25.4883 10.9645 25.2244C10.6612 25.0494 10.3579 24.8744 10.0546 24.6994C9.27178 24.2478 8.48904 23.7962 7.7064 23.3443C6.94312 22.9037 6.17968 22.4633 5.41609 22.0232C5.16916 21.8808 4.92228 21.7384 4.67547 21.5958C4.39029 21.4311 4.1049 21.2668 3.81943 21.1025C3.67133 21.0172 3.52323 20.9318 3.37064 20.8438C3.09414 20.6607 3.09414 20.6607 2.91416 20.6719ZM49.5627 37.7271C49.437 37.798 49.3114 37.869 49.182 37.9421C48.9764 38.0597 48.9764 38.0597 48.7667 38.1797C48.6252 38.2602 48.4838 38.3406 48.338 38.4235C47.18 39.0851 46.0296 39.7593 44.8819 40.4385C44.8004 40.4867 44.7189 40.5348 44.635 40.5845C44.4005 40.7232 44.1663 40.8623 43.9322 41.0015C43.7311 41.121 43.7311 41.121 43.5259 41.243C43.3962 41.3226 43.2665 41.4023 43.1329 41.4844C42.9876 41.5603 42.8422 41.6363 42.6925 41.7146C42.2443 42.0135 42.2443 42.0135 42.1877 42.5256C42.1853 42.7186 42.1875 42.9118 42.1934 43.1047C42.1933 43.2104 42.1931 43.3161 42.193 43.425C42.1936 43.7736 42.2001 44.1219 42.2068 44.4705C42.2083 44.7124 42.2095 44.9544 42.2104 45.1964C42.2136 45.8326 42.2219 46.4688 42.2312 47.105C42.2399 47.7545 42.2437 48.4039 42.248 49.0534C42.257 50.3273 42.2714 51.6012 42.2892 52.875C42.8165 52.6691 43.2971 52.4346 43.7888 52.1532C44.0225 52.0197 44.0225 52.0197 44.261 51.8834C44.4299 51.7863 44.5988 51.689 44.7677 51.5918C44.9441 51.4906 45.1205 51.3895 45.2969 51.2883C46.6447 50.5141 47.9826 49.7239 49.3182 48.9287C50.5511 48.1953 51.7914 47.4755 53.0351 46.7605C54.0844 46.1571 55.1309 45.5493 56.1759 44.9385C57.3556 44.249 58.5379 43.5645 59.7267 42.8906C59.2474 42.4905 58.7655 42.1619 58.2221 41.8552C58.0653 41.7662 57.9086 41.6772 57.747 41.5856C57.5778 41.4903 57.4086 41.3951 57.2394 41.2998C56.9753 41.1502 56.7113 41.0004 56.4474 40.8506C56.2662 40.7479 56.0851 40.6451 55.9039 40.5425C54.9574 40.0062 54.0152 39.4625 53.0733 38.918C52.4315 38.547 52.4315 38.547 51.7893 38.1767C51.5653 38.0471 51.3419 37.9167 51.1192 37.785C50.4314 37.3806 50.2488 37.3382 49.5627 37.7271Z" stroke="#7DF9FF" mask="url(#path-1-outside-1_67_3)"/>
</svg>
